# xmcd
#
# Track frame offsets: 
#        150
#        12648
#        25355
#        37485
#        49586
#        62499
#        75272
#        88825
#        100603
#        112646
#        126044
#        138693
#        151840
#        163848
#        177734
#        190508
#        202809
#        215384
#        227105
#        239483
#        252349
#        265180
#        277066
#        288622
#        301276
#        313182
#        326520
#        338963
#
# Disc length: 4679 seconds
#
# Revision: 0
# Processed by: cddbd v1.5.2PL0 Copyright (c) Steve Scherf et al.
# Submitted via: ExactAudioCopyFreeDBPlugin 1.0
#
DISCID=9612451c
DTITLE=Roy Acuff and The Smoky Mountain Boys - The King of Country Music
DTITLE=Various Artist - Disc 4
DYEAR=1900
DGENRE=Country
TTITLE0=Be Honest With Me
TTITLE1=Worried Mind
TTITLE2=Things That Might Have Been
TTITLE3=You're My Darling
TTITLE4=It Won't Be Long (Till I'll Be Leaving)
TTITLE5=Just Inside The Pearly Gates
TTITLE6=I Know We're Saying Goodbye
TTITLE7=Brother Take Warning
TTITLE8=The Great Judgement Morning
TTITLE9=Stuck Up Blues
TTITLE10=Lying Woman Blues
TTITLE11=You Are My Love
TTITLE12=Branded Wherever I Go
TTITLE13=No Letter In The Mail
TTITLE14=Are You Thinking Of Me Darling
TTITLE15=I Called And Nobody Answered
TTITLE16=Wreck On The Highway
TTITLE17=Fire Ball Mail
TTITLE18=I'll Reap My Harvest In Heaven
TTITLE19=Night Train To Memphis
TTITLE20=The Prodigal Son
TTITLE21=Low And Lonely
TTITLE22=Write Me Sweetheart
TTITLE23=I Didn't Want To Know
TTITLE24=Roll On Buddy
TTITLE25=Weary Lonesome Blues
TTITLE26=Come Back Little Darling
TTITLE27=The Can Only Fill One Grave
EXTD=
EXTT0=
EXTT1=
EXTT2=
EXTT3=
EXTT4=
EXTT5=
EXTT6=
EXTT7=
EXTT8=
EXTT9=
EXTT10=
EXTT11=
EXTT12=
EXTT13=
EXTT14=
EXTT15=
EXTT16=
EXTT17=
EXTT18=
EXTT19=
EXTT20=
EXTT21=
EXTT22=
EXTT23=
EXTT24=
EXTT25=
EXTT26=
EXTT27=
PLAYORDER=
